<?xml version="1.0" encoding="UTF-8" standalone="no"?>
<!-- Generator: Adobe Illustrator 19.0.0, SVG Export Plug-In . SVG Version: 6.00 Build 0)  -->

<svg
   xmlns:dc="http://purl.org/dc/elements/1.1/"
   xmlns:cc="http://creativecommons.org/ns#"
   xmlns:rdf="http://www.w3.org/1999/02/22-rdf-syntax-ns#"
   xmlns:svg="http://www.w3.org/2000/svg"
   xmlns="http://www.w3.org/2000/svg"
   xmlns:sodipodi="http://sodipodi.sourceforge.net/DTD/sodipodi-0.dtd"
   xmlns:inkscape="http://www.inkscape.org/namespaces/inkscape"
   version="1.1"
   id="Capa_1"
   x="0px"
   y="0px"
   viewBox="0 0 29.480931 29.480927"
   xml:space="preserve"
   sodipodi:docname="foodicon2.svg"
   width="29.480932"
   height="29.480928"
   inkscape:version="0.92.5 (2060ec1f9f, 2020-04-08)"><metadata
   id="metadata5026"><rdf:RDF><cc:Work
       rdf:about=""><dc:format>image/svg+xml</dc:format><dc:type
         rdf:resource="http://purl.org/dc/dcmitype/StillImage" /><dc:title></dc:title></cc:Work></rdf:RDF></metadata><defs
   id="defs5024" /><sodipodi:namedview
   pagecolor="#ffffff"
   bordercolor="#666666"
   borderopacity="1"
   objecttolerance="10"
   gridtolerance="10"
   guidetolerance="10"
   inkscape:pageopacity="0"
   inkscape:pageshadow="2"
   inkscape:window-width="1920"
   inkscape:window-height="1000"
   id="namedview5022"
   showgrid="false"
   inkscape:zoom="22.627417"
   inkscape:cx="10.538759"
   inkscape:cy="14.478502"
   inkscape:window-x="-11"
   inkscape:window-y="-11"
   inkscape:window-maximized="1"
   inkscape:current-layer="Capa_1" />
<ellipse
   style="fill:#cdd6e0;stroke-width:0.05750019"
   cx="14.740466"
   cy="14.707552"
   id="circle4979"
   rx="14.740466"
   ry="14.699662" />
<ellipse
   style="fill:#acb3ba;stroke-width:0.05750019"
   cx="14.740466"
   cy="14.707552"
   id="circle4981"
   rx="10.6254"
   ry="10.595986" />
<path
   style="fill:#f2f2f2;stroke-width:0.05750019"
   d="m 15.170409,0.00788642 c -0.307071,0 -0.491327,0.306224 -0.491327,0.5512382 V 6.1327619 c 0,0.306224 -0.245696,0.5512382 -0.552767,0.5512382 -0.307072,0 -0.552768,-0.2450142 -0.552768,-0.5512382 V 0.55912462 c 0,-0.306224 -0.184256,-0.5512382 -0.491327,-0.5512382 -0.307072,-0.061265 -0.614208,0.2450142 -0.614208,0.5512382 V 6.1327619 c 0,0.306224 -0.245696,0.5512382 -0.552767,0.5512382 v 0 c -0.307072,0 -0.552768,-0.2450142 -0.552768,-0.5512382 V 0.55912462 c 0,-0.306224 -0.184256,-0.5512382 -0.491327,-0.5512382 -0.307072,-0.061265 -0.614208,0.2450142 -0.614208,0.5512382 V 6.1327619 c 0,0.306224 -0.245696,0.5512382 -0.5527671,0.5512382 v 0 c -0.307072,0 -0.552767,-0.2450142 -0.552767,-0.5512382 V 0.55912462 c 0,-0.306224 -0.1842559,-0.5512382 -0.4913279,-0.5512382 -0.307072,-0.061265 -0.614208,0.2450142 -0.614208,0.5512382 V 6.7452102 c 0,1.0412109 0.429952,1.9599379 1.1055359,2.6949163 C 10.256942,10.542603 10.87115,12.073843 10.74827,13.605018 L 9.5199189,26.834715 c 0,0.122475 0,0.306224 0,0.428754 0.122816,1.347491 1.4126071,2.327428 2.7638371,2.082469 1.228351,-0.245005 2.026814,-1.408691 1.903999,-2.633707 L 13.02078,13.543808 c -0.122816,-1.592449 0.491327,-3.062415 1.596862,-4.1648915 0.675592,-0.6737124 1.105535,-1.6537044 1.105535,-2.6949164 V 0.55912462 c 0,-0.306224 -0.245687,-0.5512382 -0.552768,-0.5512382 z"
   id="path4983"
   inkscape:connector-curvature="0" />
<path
   style="fill:#40596b;stroke-width:0.05750019"
   d="M 13.082165,13.788822 H 10.74827 L 9.5813039,26.83477 c 0,0.122475 0,0.306224 0,0.428754 0.122816,1.347491 1.4126061,2.327428 2.7638371,2.082478 1.228351,-0.245014 2.026814,-1.4087 1.903989,-2.633716 z"
   id="path4985"
   inkscape:connector-curvature="0" />
<path
   style="fill:#f2f2f2;stroke-width:0.05750019"
   d="m 20.452397,0.00788642 c 0,0 -2.641021,1.04120208 -3.746556,8.94227608 -0.429952,3.2461555 0.245696,6.4311005 1.474046,9.4323045 0.122816,0.306224 0.184256,0.673713 0.184256,1.041202 l -0.737023,7.901065 c 0,0.122484 0,0.245014 0,0.367498 0.122816,1.041202 1.044095,1.837455 2.14963,1.71498 0.982719,-0.122484 1.658302,-1.163741 1.596862,-2.143688 z"
   id="path4987"
   inkscape:connector-curvature="0" />
<path
   style="fill:#ff7058;stroke-width:0.05750019"
   d="m 18.364199,19.36246 c 0,0.06127 0,0.06127 0,0.122475 l -0.737024,7.901074 c 0,0.122474 0,0.245014 0,0.367489 0.122816,1.041211 1.044095,1.837454 2.14963,1.714979 0.982719,-0.122475 1.658302,-1.163741 1.596872,-2.143678 l -0.245696,-7.901074 h -2.763838 v -0.06127 z"
   id="path4989"
   inkscape:connector-curvature="0" />
<g
   id="g4991"
   transform="translate(-1.5499887,-1.9140951)">
</g>
<g
   id="g4993"
   transform="translate(-1.5499887,-1.9140951)">
</g>
<g
   id="g4995"
   transform="translate(-1.5499887,-1.9140951)">
</g>
<g
   id="g4997"
   transform="translate(-1.5499887,-1.9140951)">
</g>
<g
   id="g4999"
   transform="translate(-1.5499887,-1.9140951)">
</g>
<g
   id="g5001"
   transform="translate(-1.5499887,-1.9140951)">
</g>
<g
   id="g5003"
   transform="translate(-1.5499887,-1.9140951)">
</g>
<g
   id="g5005"
   transform="translate(-1.5499887,-1.9140951)">
</g>
<g
   id="g5007"
   transform="translate(-1.5499887,-1.9140951)">
</g>
<g
   id="g5009"
   transform="translate(-1.5499887,-1.9140951)">
</g>
<g
   id="g5011"
   transform="translate(-1.5499887,-1.9140951)">
</g>
<g
   id="g5013"
   transform="translate(-1.5499887,-1.9140951)">
</g>
<g
   id="g5015"
   transform="translate(-1.5499887,-1.9140951)">
</g>
<g
   id="g5017"
   transform="translate(-1.5499887,-1.9140951)">
</g>
<g
   id="g5019"
   transform="translate(-1.5499887,-1.9140951)">
</g>
</svg>