<?xml version="1.0" encoding="UTF-8" standalone="no"?>
<!-- Generator: Adobe Illustrator 19.0.0, SVG Export Plug-In . SVG Version: 6.00 Build 0)  -->

<svg
   xmlns:dc="http://purl.org/dc/elements/1.1/"
   xmlns:cc="http://creativecommons.org/ns#"
   xmlns:rdf="http://www.w3.org/1999/02/22-rdf-syntax-ns#"
   xmlns:svg="http://www.w3.org/2000/svg"
   xmlns="http://www.w3.org/2000/svg"
   xmlns:sodipodi="http://sodipodi.sourceforge.net/DTD/sodipodi-0.dtd"
   xmlns:inkscape="http://www.inkscape.org/namespaces/inkscape"
   version="1.1"
   id="Capa_1"
   x="0px"
   y="0px"
   viewBox="0 0 31.999999 31.999995"
   xml:space="preserve"
   sodipodi:docname="foodicon.svg"
   width="32"
   height="31.999996"
   inkscape:version="0.92.5 (2060ec1f9f, 2020-04-08)"><metadata
   id="metadata5026"><rdf:RDF><cc:Work
       rdf:about=""><dc:format>image/svg+xml</dc:format><dc:type
         rdf:resource="http://purl.org/dc/dcmitype/StillImage" /><dc:title></dc:title></cc:Work></rdf:RDF></metadata><defs
   id="defs5024" /><sodipodi:namedview
   pagecolor="#ffffff"
   bordercolor="#666666"
   borderopacity="1"
   objecttolerance="10"
   gridtolerance="10"
   guidetolerance="10"
   inkscape:pageopacity="0"
   inkscape:pageshadow="2"
   inkscape:window-width="1920"
   inkscape:window-height="1000"
   id="namedview5022"
   showgrid="false"
   inkscape:zoom="5.6568542"
   inkscape:cx="51.053641"
   inkscape:cy="11.740061"
   inkscape:window-x="-11"
   inkscape:window-y="-11"
   inkscape:window-maximized="1"
   inkscape:current-layer="Capa_1" />
<ellipse
   style="fill:#cdd6e0;stroke-width:0.06241343"
   cx="16"
   cy="15.964273"
   id="circle4979"
   rx="16"
   ry="15.955709" />
<ellipse
   style="fill:#acb3ba;stroke-width:0.06241343"
   cx="16"
   cy="15.964273"
   id="circle4981"
   rx="11.533312"
   ry="11.501386" />
<path
   style="fill:#f2f2f2;stroke-width:0.06241343"
   d="m 16.466682,0.00856031 c -0.33331,0 -0.53331,0.33238995 -0.53331,0.59833995 V 6.6567903 c 0,0.33239 -0.26669,0.59834 -0.6,0.59834 -0.33331,0 -0.6,-0.26595 -0.6,-0.59834 V 0.60690026 c 0,-0.33239 -0.2,-0.59833995 -0.53331,-0.59833995 -0.33331,-0.0665 -0.66669,0.26594995 -0.66669,0.59833995 V 6.6567903 c 0,0.33239 -0.26669,0.59834 -0.6,0.59834 v 0 c -0.33331,0 -0.6,-0.26595 -0.6,-0.59834 V 0.60690026 c 0,-0.33239 -0.2,-0.59833995 -0.53331,-0.59833995 -0.33331,-0.0665 -0.66669,0.26594995 -0.66669,0.59833995 V 6.6567903 c 0,0.33239 -0.26669,0.59834 -0.6,0.59834 v 0 c -0.33331,0 -0.5999997,-0.26595 -0.5999997,-0.59834 V 0.60690026 c 0,-0.33239 -0.2,-0.59833995 -0.5333103,-0.59833995 -0.33331,-0.0665 -0.66669,0.26594995 -0.66669,0.59833995 V 7.3215707 c 0,1.13018 0.46669,2.1274097 1.2000003,2.9251893 1.1999997,1.19668 1.8666897,2.85876 1.7333097,4.52077 l -1.33331,14.36014 c 0,0.13294 0,0.33239 0,0.46539 0.13331,1.46263 1.53331,2.5263 3,2.26041 1.33331,-0.26594 2.2,-1.52906 2.06669,-2.85875 l -1.26669,-14.29363 c -0.13331,-1.72852 0.53331,-3.32409 1.73331,-4.52077 0.73332,-0.7312796 1.2,-1.7950093 1.2,-2.9251897 V 0.60690026 c 0,-0.33239 -0.26668,-0.59833995 -0.6,-0.59833995 z"
   id="path4983"
   inkscape:connector-curvature="0" />
<path
   style="fill:#40596b;stroke-width:0.06241343"
   d="m 14.200002,14.96704 h -2.53332 l -1.26668,14.16069 c 0,0.13294 0,0.33239 0,0.46539 0.13331,1.46263 1.53331,2.5263 3,2.26042 1.33331,-0.26595 2.2,-1.52907 2.06668,-2.85876 z"
   id="path4985"
   inkscape:connector-curvature="0" />
<path
   style="fill:#f2f2f2;stroke-width:0.06241343"
   d="m 22.200002,0.00856031 c 0,0 -2.86669,1.13016999 -4.06669,9.70637009 -0.46669,3.5235296 0.26669,6.9806196 1.6,10.2382696 0.13331,0.33239 0.2,0.73128 0.2,1.13017 l -0.8,8.57619 c 0,0.13295 0,0.26595 0,0.3989 0.13331,1.13017 1.13331,1.99446 2.33331,1.86152 1.06669,-0.13295 1.8,-1.26318 1.73331,-2.32686 z"
   id="path4987"
   inkscape:connector-curvature="0" />
<path
   style="fill:#ff7058;stroke-width:0.06241343"
   d="m 19.933372,21.01693 c 0,0.0665 0,0.0665 0,0.13294 l -0.8,8.5762 c 0,0.13294 0,0.26595 0,0.39889 0.13331,1.13018 1.13331,1.99446 2.33331,1.86152 1.06669,-0.13294 1.8,-1.26318 1.73332,-2.32685 l -0.26669,-8.5762 h -3 v -0.0665 z"
   id="path4989"
   inkscape:connector-curvature="0" />
<g
   id="g4991"
   transform="translate(-0.53352165,-0.76504664)">
</g>
<g
   id="g4993"
   transform="translate(-0.53352165,-0.76504664)">
</g>
<g
   id="g4995"
   transform="translate(-0.53352165,-0.76504664)">
</g>
<g
   id="g4997"
   transform="translate(-0.53352165,-0.76504664)">
</g>
<g
   id="g4999"
   transform="translate(-0.53352165,-0.76504664)">
</g>
<g
   id="g5001"
   transform="translate(-0.53352165,-0.76504664)">
</g>
<g
   id="g5003"
   transform="translate(-0.53352165,-0.76504664)">
</g>
<g
   id="g5005"
   transform="translate(-0.53352165,-0.76504664)">
</g>
<g
   id="g5007"
   transform="translate(-0.53352165,-0.76504664)">
</g>
<g
   id="g5009"
   transform="translate(-0.53352165,-0.76504664)">
</g>
<g
   id="g5011"
   transform="translate(-0.53352165,-0.76504664)">
</g>
<g
   id="g5013"
   transform="translate(-0.53352165,-0.76504664)">
</g>
<g
   id="g5015"
   transform="translate(-0.53352165,-0.76504664)">
</g>
<g
   id="g5017"
   transform="translate(-0.53352165,-0.76504664)">
</g>
<g
   id="g5019"
   transform="translate(-0.53352165,-0.76504664)">
</g>
</svg>